# xmcd
#
# Track frame offsets:
#	150
#	13327
#	30541
#	43927
#	55736
#	66234
#	84341
#	95966
#	110929
#	130066
#	149404
#	162719
#	177093
#	193332
#	206024
#	222724
#	237600
#	251423
#	266273
#	282914
#
# Disc length: 3918 seconds
#
# Revision: 1
# Processed by: cddbd v1.5.2PL0 Copyright (c) Steve Scherf et al.
# Submitted via: audiograbber 1.83.01
#
DISCID=430f4c14
DTITLE=Various Artist - The Essential Country - Disc 2
DYEAR=2005
DGENRE=Country
TTITLE0=Dolly Parton - I Will Always Love You
TTITLE1=Ray Price - For The Good Times
TTITLE2=Lynn Anderson - Rose Garden
TTITLE3=Johnny Paycheck - Take This Job And Shove It
TTITLE4=Jerry Reed - When Your Hot Your Hot
TTITLE5=Billy Swan - I Can Help
TTITLE6=Charlie Rich - The Most Beautiful Girl
TTITLE7=Waylon Jennings - Luckenbach Texas
TTITLE8=Merle Haggard - Are The Good Times Really Over
TTITLE9=Ronnie Milsap - Lost In The Fiftys Tonight
TTITLE10=Waylon Jennings and Willie Nelson - Good Hearted Woman
TTITLE11=Ricky Skaggs - Hiway 40 Blues
TTITLE12=The Charlie Daniels Band - The Devil Went Down To Georgia
TTITLE13=Clint Black - Killin Time
TTITLE14=Alabama - Touch Me When Were Dancing
TTITLE15=Rodney Crowell - I Couldnt Leave You If I Tried
TTITLE16=The Highway Men - Highwayman
TTITLE17=Rosanne Cash - I Dont Know Why You Dont Want Me
TTITLE18=Keith Whitley - When You Say Nothing At All
TTITLE19=Alan Jackson - Chattahoochee
EXTD=
EXTT0=
EXTT1=
EXTT2=
EXTT3=
EXTT4=
EXTT5=
EXTT6=
EXTT7=
EXTT8=
EXTT9=
EXTT10=
EXTT11=
EXTT12=
EXTT13=
EXTT14=
EXTT15=
EXTT16=
EXTT17=
EXTT18=
EXTT19=
PLAYORDER=
